<?xml version="1.0" encoding="UTF-8"?><svg id="Calque_2" xmlns="http://www.w3.org/2000/svg" viewBox="0 0 2101.89 313.45"><g id="Art"><rect x="111.31" y=".9" width="66.78" height="311.65"/><polygon points="66.78 .89 0 .89 0 312.55 66.78 312.55 66.78 201.47 101.12 175.75 101.12 106.95 66.78 132.7 66.78 .89"/><rect x="382.75" y=".9" width="66.78" height="311.65"/><polygon points="637.05 312.54 700.1 312.54 718.11 250.21 637.05 250.21 637.05 312.54"/><polygon points="1230.48 312.54 1293.54 312.54 1311.54 250.21 1230.48 250.21 1230.48 312.54"/><polygon points="459.71 312.54 522.77 312.54 540.77 250.21 459.71 250.21 459.71 312.54"/><rect x="560.07" y=".9" width="66.78" height="311.65"/><polygon points="866.5 217.95 808.19 217.95 808.19 54.67 764.45 54.67 764.45 258.78 866.5 258.78 866.5 217.95"/><polygon points="972.21 95.5 982.64 54.67 880.58 54.67 880.58 258.78 973.2 258.78 984.98 217.94 924.31 217.94 924.31 173.63 957.13 173.63 968.06 135.74 924.31 135.74 924.31 95.5 972.21 95.5"/><polygon points="982.99 95.5 1029.86 95.5 1029.86 258.78 1073.6 258.78 1073.6 95.5 1110.06 95.5 1110.06 54.67 993.42 54.67 982.99 95.5"/><rect x="1153.5" y=".9" width="66.78" height="311.65"/><path d="m1330.82,47.2v219.05c0,28.05,19.15,47.2,47.2,47.2h36.75v-63.24h-15.83c-.9,0-1.33-.44-1.33-1.33V64.57c0-.9.44-1.33,1.33-1.33h15.83V0h-36.75c-28.05,0-47.2,19.15-47.2,47.2Z"/><path d="m1461.72,0h-36.75v63.24h15.83c.88,0,1.33.44,1.33,1.33v184.31c0,.9-.46,1.33-1.33,1.33h-15.83v63.24h36.75c28.05,0,47.2-19.15,47.2-47.2V47.2c0-28.05-19.15-47.2-47.2-47.2Z"/><path d="m1666.73,0h-36.75v63.24h15.83c.88,0,1.33.44,1.33,1.33v184.31c0,.9-.46,1.33-1.33,1.33h-15.83v63.24h36.75c28.05,0,47.2-19.15,47.2-47.2V47.2c0-28.05-19.15-47.2-47.2-47.2Z"/><path d="m1535.84,47.2v219.05c0,28.05,19.15,47.2,47.2,47.2h36.75v-63.24h-15.83c-.9,0-1.33-.44-1.33-1.33V64.57c0-.9.44-1.33,1.33-1.33h15.83V0h-36.75c-28.05,0-47.2,19.15-47.2,47.2Z"/><path d="m1807.63,248.88v-36.5h-66.78v53.87c0,28.06,18.69,47.2,47.2,47.2h36.74v-63.23h-15.83c-.89,0-1.34-.43-1.34-1.34Z"/><path d="m1871.75,0h-36.76v63.23h15.84c.87,0,1.34.43,1.34,1.34v36.5h66.78v-53.87C1918.95,19.15,1899.81,0,1871.75,0Z"/><path d="m1808.97,86.83c-.89-.9-1.34-1.77-1.34-3.11v-19.14c0-.9.45-1.34,1.34-1.34h15.83V0h-36.74c-28.51,0-47.2,19.14-47.2,47.2v35.61c0,20.05,7.12,36.06,17.81,46.75l92.18,90.82c.87.9,1.34,1.79,1.34,3.13v25.36c0,.9-.47,1.34-1.34,1.34h-15.84v63.23h36.76c28.06,0,47.2-19.14,47.2-47.2v-41.85c0-20.03-7.14-36.06-17.82-46.75l-92.16-90.82Z"/><rect x="764.45" y=".9" width="345.6" height="32.94"/><rect x="764.45" y="279.61" width="345.6" height="32.94"/><polygon points="2079.43 124.68 2022.85 124.68 2022.85 182.55 2062.73 182.55 2079.43 124.68"/><rect x="1945.87" y=".9" width="66.78" height="311.65"/><polygon points="2022.85 312.55 2082.56 312.55 2100.55 250.21 2022.85 250.21 2022.85 312.55"/><polygon points="2101.89 .89 2022.85 .89 2022.85 63.23 2083.89 63.23 2101.89 .89"/><polygon points="339 124.68 282.42 124.68 282.42 182.55 322.29 182.55 339 124.68"/><rect x="205.44" y=".9" width="66.78" height="311.65"/><polygon points="282.42 312.55 342.12 312.55 360.11 250.21 282.42 250.21 282.42 312.55"/><polygon points="282.42 63.23 343.45 63.23 361.46 .89 282.42 .89 282.42 63.23"/></g></svg>